<svg xmlns="http://www.w3.org/2000/svg" width="32" height="32" fill="none" xmlnsV="https://vecta.io/nano"><path d="M21.403 22.465h-9.58L7.852 26.52v-4.055H6.137C4.956 22.465 4 21.508 4 20.328v-8.913c0-1.179.956-2.137 2.137-2.137H7.5" stroke="#101010" stroke-width="1.5" stroke-linecap="round" stroke-linejoin="round"/><g fill-rule="evenodd"><path d="M9.435 7.137v8.913a2.14 2.14 0 0 0 2.137 2.137h9.58l3.971 4.055v-4.055h1.716c1.18 0 2.137-.957 2.137-2.137V7.137c0-1.179-.956-2.137-2.137-2.137H11.571a2.14 2.14 0 0 0-2.137 2.137z" fill="#101010"/><path d="M18.863 14.561c0-.537.277-.806.828-.806.271 0 .479.07.62.21s.216.339.216.595-.074.452-.217.599-.351.221-.619.221-.471-.072-.614-.216-.214-.346-.214-.605zm.232-1.702v-.341c0-.391.075-.717.226-.977s.412-.528.788-.805c.447-.334.735-.593.865-.779s.193-.404.193-.661c0-.298-.104-.528-.315-.687s-.513-.24-.907-.24a3.27 3.27 0 0 0-.991.144 7.32 7.32 0 0 0-.891.346l-.473-.938a5.17 5.17 0 0 1 2.452-.603c.736 0 1.321.171 1.752.511s.648.813.648 1.413c0 .266-.041.504-.125.713a2.03 2.03 0 0 1-.374.595c-.167.188-.455.434-.865.736-.349.26-.583.474-.701.645s-.178.399-.178.688v.239h-1.104z" fill="#fff"/></g></svg>